<svg id="Layer_1" data-name="Layer 1" xmlns="http://www.w3.org/2000/svg" viewBox="0 0 496 497"><defs><style>.cls-1{fill:#233660;}.cls-2{fill:#2dab10;}</style></defs><path class="cls-1" d="M256,8C119,8,8,119,8,256S119,504,256,504,504,393,504,256,393,8,256,8ZM377.6,321.1a12,12,0,0,1,0,17L338,377.6a12,12,0,0,1-17,0L256,312l-65.1,65.6a12,12,0,0,1-17,0L134.4,338a12,12,0,0,1,0-17L200,256l-65.6-65.1a12,12,0,0,1,0-17L174,134.3a12,12,0,0,1,17,0L256,200l65.1-65.6a12,12,0,0,1,17,0L377.7,174a12,12,0,0,1,0,17L312,256Z" transform="translate(-8 -7)"/><path class="cls-2" d="M256,7C119,7,8,118,8,255S119,503,256,503,504,392,504,255,393,7,256,7ZM377.6,320.1a12,12,0,0,1,0,17L338,376.6a12,12,0,0,1-17,0L256,311l-65.1,65.6a12,12,0,0,1-17,0L134.4,337a12,12,0,0,1,0-17L200,255l-65.6-65.1a12,12,0,0,1,0-17L174,133.3a12,12,0,0,1,17,0L256,199l65.1-65.6a12,12,0,0,1,17,0L377.7,173a12,12,0,0,1,0,17L312,255Z" transform="translate(-8 -7)"/></svg>