<?xml version="1.0" encoding="utf-8"?>
<!-- Generator: Adobe Illustrator 24.2.1, SVG Export Plug-In . SVG Version: 6.00 Build 0)  -->
<svg version="1.1" id="Layer_1" xmlns="http://www.w3.org/2000/svg" xmlns:xlink="http://www.w3.org/1999/xlink" x="0px" y="0px"
	 viewBox="0 0 492.9 331.1" style="enable-background:new 0 0 492.9 331.1;" xml:space="preserve">
<style type="text/css">
	.st0{fill:#29B2D3;}
	.st1{fill:#4062AE;}
	.st2{fill:#FFFFFF;}
</style>
<g id="Layer_1_1_">
</g>
<g id="Layer_2_1_">
	<g>
		<path class="st0" d="M50.7,235.6c1.2,5.4,2.1,10.9,3.5,16.3c10.2,39.7,42.6,67.5,78.4,67.5c92.8,0,185.6,0,278.5,0
			c40.3,0,75.3-35.1,81-81.2c6.4-51.9-21.6-98.2-66-108.8c-6.7-1.6-13.7-1.6-21-2.3c-5-15.5-13-29.5-24.4-40.6
			c-18.6-18-40-25.4-64.1-21.7c-2.9,0.4-4.3-0.6-5.8-3.3c-17.9-33.1-43.3-54.4-76.8-59.9c-43.9-7.3-80.1,10.1-106.9,51.3
			c-14.7,22.6-21.5,48.5-20.8,76.9c0.1,2.5-0.4,3.8-2.5,4.8c-29.2,14.1-46.8,39.1-52.1,75.3c-0.1,0.6-0.5,1.2-0.7,1.8
			C50.7,219.7,50.7,227.6,50.7,235.6z"/>
		<g>
			<path class="st1" d="M0,230.2c0.2-0.6,0.6-1.1,0.7-1.7c5.5-33.9,23.4-57.3,53.2-70.5c2.2-1,2.6-2.2,2.6-4.5
				c-0.7-26.6,6.3-50.9,21.3-72.1c27.4-38.6,64.3-54.8,109.2-48c34.2,5.2,60.1,25.1,78.4,56.1c1.5,2.6,3,3.6,5.9,3.1
				c24.6-3.5,46.5,3.4,65.5,20.3c11.7,10.4,19.9,23.5,24.9,38.1c7.5,0.7,14.6,0.7,21.5,2.2c45.3,9.9,73.9,53.3,67.4,101.9
				c-5.8,43.1-41.6,76-82.7,76c-94.8,0-189.6,0-284.3,0c-36.6,0-69.6-26-80.1-63.2c-1.4-5-2.4-10.2-3.6-15.3"/>
			<path class="st1" d="M0,252.6c1.2,5.1,2.2,10.3,3.6,15.3c10.4,37.2,43.5,63.2,80.1,63.2c94.8,0,189.5,0,284.3,0
				c41.1,0,76.9-32.9,82.7-76c6.5-48.6-22.1-92-67.4-101.9c-6.8-1.5-14-1.5-21.5-2.2c-5.1-14.5-13.2-27.6-24.9-38.1
				c-19-16.9-40.9-23.8-65.5-20.3c-2.9,0.4-4.4-0.5-5.9-3.1c-18.3-31-44.2-50.9-78.4-56.1c-44.9-6.8-81.8,9.5-109.2,48
				c-15,21.2-22,45.5-21.3,72.1c0.1,2.3-0.4,3.6-2.6,4.5c-29.8,13.2-47.7,36.6-53.2,70.5c-0.1,0.6-0.5,1.1-0.7,1.7
				C0,237.7,0,245.1,0,252.6z"/>
		</g>
		<g>
			<path class="st2" d="M286.2,207.1c-14.8-0.4-26.4-10.5-34.3-21c-7.8-10.9-10.8-18.8-10.5-27.2c0-0.5,0-1,0.1-1.5
				c0.2-5.8,1.9-11.4,5.3-18.2c3.4-6.6,8.4-13.8,15.3-19.3c6.9-5.6,15.1-8.8,24.3-7.7c13.8,1.7,24,11.5,30.5,21.2
				c6.5,10,9.1,17.9,8.7,26.9c0,0.5,0,1-0.1,1.5c-0.1,2.6-1.8,5.1-3.9,5.4c-13.4,1.7-30.5,1-46.9-0.5c-4.8-0.4-6.7,9.5-2.6,13.7
				c0,0,0.1,0.1,0.1,0.1c4.2,4.2,9.7,6.8,16.3,6.9c9,0.2,16.2-3.6,21.5-9c1.4-1.4,3-1.7,4.2-0.7c1.3,1,2.5,1.8,3.7,2.6
				c2.5,1.6,2.1,7.1-0.8,10.7c-2.5,2.9-5.3,5.8-8.6,8.3C302.1,204.2,294.5,207.3,286.2,207.1z M285.6,131.8
				c-5.3-0.5-9.7,1.2-13.1,4.5c-0.1,0.1-0.1,0.1-0.2,0.2c-4,4-2.5,13.5,2.1,13.7c9.4,0.4,19.2,1.3,28.3,2.4c0-0.6,0-1.2,0.1-1.8
				c0-5.1-1.3-9.3-4.3-12.7C295.6,134.7,291.3,132.3,285.6,131.8z"/>
		</g>
		<g>
			<path class="st2" d="M126.9,269.6c1.4,0.4,2.4,2,2.2,3.3c-1.3,7.9-5.5,13.9-12.8,19.1c-8.1,5.6-18.7,9.1-31.7,9.1
				c-14.3,0-25.6-4.8-33.9-12.6c-8.3-7.9-12.1-17.2-12.1-30.5c0-1.8,0-3.6,0-5.4c0-8.5,1.7-17,5-26C47,217.6,52,208.9,59,202
				c7.1-6.8,15.8-11.2,25.9-11c14,0.3,24.8,8.3,32.2,18.5c6.7,9.4,10.4,19.4,11.9,28.9c0.3,1.6-0.7,2.3-2.1,1.6
				c-5.5-3.1-11.3-5.6-17.4-7.4c-1.2-0.3-2.1-1.6-2.3-2.9c-0.7-5.7-2.6-10.3-5.8-13.8c-3.5-3.9-9.1-6.6-16.6-6.7
				c-8.2-0.1-14.3,3.7-18.2,9.7c-3.9,6.1-5.8,14.5-5.7,25.1c0,2.6,0.1,5.2,0.1,7.8c0.2,11.1,2.1,18.9,5.9,23.9
				c3.8,5,9.6,7.4,17.6,7.4c7.2,0,12.6-1.3,16.1-4.1c3.1-2.5,5.1-6.1,5.9-11.2c0.2-1.3,1.2-2.1,2.3-1.9
				C115.1,266.7,121.1,268,126.9,269.6z"/>
		</g>
		<g>
			<path class="st2" d="M205.2,304C205.2,303.9,205.2,303.9,205.2,304c-0.8-2.7-3.2-3.7-5.1-2.1c-5.1,4.5-11.3,6.8-18.5,6.8
				c-8.6,0-15.9-2.9-21.6-7.8c-5.7-4.9-8.4-10.4-8.4-17.7c0-8.9,3.2-17.1,9.8-24.7c6.6-7.4,16.9-13.4,30.7-13.3
				c2.6,0,5.2,0.2,7.8,0.5c2,0.2,3.6-1.6,3.6-4.2c0-0.4,0-0.7,0-1.1c0-4.6-1-8.5-3.2-11.6c-2.2-3.1-5.7-4.9-10.5-4.8
				c-4.3,0.1-7.6,1.6-9.9,4.1c-1.6,1.8-2.7,3.9-3.2,6.3c-0.4,2-1.8,3.5-3.3,3.8c-5.8,1.4-11.3,3.4-16.5,6.1c-2.1,1.1-3.6-0.6-3-3.5
				c0.6-3.5,1.9-7.3,3.7-11.4c2.9-6.3,7-12.5,12.9-17.4c5.9-5,12.8-8,20.6-8c11.9,0.1,20.9,6.9,27,15.9c6.1,9.1,8.8,18.9,8.8,28.6
				c-0.1,12.7-0.1,25.4-0.2,38c0,7.8,1,13.9,2.9,18.1c0.3,0.6,0.5,1.3,0.5,2c0,0.1,0,0.2,0,0.3c-7.2-0.1-14.5-0.2-21.7-0.2
				C206.9,306.8,205.7,305.7,205.2,304z M186.6,288.1c3.5-0.1,6.8-0.9,9.8-2.6c2.5-1.4,4.5-3.2,5.9-5.4c0.5-0.8,0.8-1.8,0.8-2.9
				c0-3.6,0.1-7.3,0.1-10.9c0-2.5-1.5-4.8-3.5-5c-1.9-0.1-3.7-0.3-5.6-0.3c-12.3-0.2-18.7,5.7-19.3,14.7c0,0.5,0,1-0.1,1.5
				c0,3.3,1.1,5.9,3.2,7.9C180.1,287.2,183,288.1,186.6,288.1z"/>
		</g>
		<g>
			<path class="st2" d="M310.5,250.1c0,1.6-1.5,1.7-3.3,0.6c-2.3-1.5-4.5-2.6-6.5-3.4c-10.5-4-18.3-0.9-22,4.7
				c-0.3,0.5-0.4,1-0.4,1.6c0.4,17.9,0.7,35.8,1.1,53.7c0,1.7-1.5,3.2-3.3,3.2c-7.5,0.2-15,0.4-22.5,0.6c-1.9,0-3.4-1.1-3.5-2.6
				c-0.6-23.8-1.1-47.3-1.6-70.4c0-1.4,1.2-3.9,2.9-5.3c6.2-5.2,13.5-8.5,21-9.9c1.9-0.4,3.5,0.8,3.7,2.4l0,0c0.3,2.6,4,3.5,6.2,1.9
				c5.5-4.2,12.5-5.1,19.9-0.8c2.1,1.2,4,2.7,5.8,4.5c1.4,1.4,2.4,3.6,2.4,4.9C310.5,240.6,310.5,245.4,310.5,250.1z"/>
		</g>
		<g>
			<path class="st2" d="M377.8,301.2c-13.4,5.5-25.4,5.9-36.2,1.3c-10.9-4.6-18.4-12.6-22.2-23.4c-0.2-0.6-0.5-1.3-0.7-1.9
				c-2.6-7.2-3.1-14.1-1.8-22.1c1.3-8,4.2-16.5,9.2-25.3c5-8.8,11.6-17,20.4-22.6c13.1-8.4,25.4-7.3,35.1,0.6c9.8,8,16,21.2,19.8,36
				c0.7,2.7,1.4,5.4,2.1,8.1c0.3,1.1-0.2,1.9-1,1.9c-17.1-0.9-36.8,6.2-55.1,15.4c-1.1,0.5-1.5,2.1-0.9,3.1c2.6,4.2,6,7.1,10.4,8.7
				c5.1,1.9,10.7,1.6,16.9-0.6c8.9-3.2,15.1-8.1,18.6-14.9c0.4-0.8,1.4-1,2.2-0.4c4.1,3.2,8.2,6.4,12.2,9.5c0.8,0.6,1.2,1.8,0.8,2.5
				c-2.1,4.4-5.5,8.4-10.4,12.4C392,294.1,385.4,298.1,377.8,301.2z M352.6,226.1c-5.1,2.6-8.6,6.8-10.6,11.7
				c-1.8,4.3-2.4,9-1.8,14.1c0.1,1.3,1.3,1.9,2.4,1.3c10.2-5.9,20.9-10.8,31.4-13.8c0.9-0.3,1.5-1.4,1.1-2.5l0,0
				c-1.7-5.7-4.5-9.7-8.4-11.8C362.8,223.1,358,223.3,352.6,226.1z"/>
		</g>
		<g>
			<g>
				<path class="st2" d="M203.6,120.4c2.5-11.8,5-22.8,7.5-32.9c1.1-4.4,4.1-5.9,7.5-3.6c2.2,1.5,4.4,3.2,6.6,4.9
					c5.1,4.6,8.3,13.4,6.6,17.3c-5.8,14.4-12,37.7-18.7,66.4c-1.2,5-4.2,9.9-7.6,11.7c-4.8,2.6-9.8,4.8-14.8,6.6
					c-3.5,1.3-6.7-1.3-8.1-6.3c-3.6-13.4-7.3-27.7-11-42.3c-3.1-12.1-13.4-12.1-16.5,0c-3.7,14.6-7.4,28.8-11,42.3
					c-1.4,5.1-4.6,7.6-8.1,6.3c-5-1.8-10-4.1-14.8-6.6c-3.5-1.9-6.4-6.7-7.6-11.7c-6.7-28.8-12.9-52-18.7-66.4
					c-1.7-3.9,1.5-12.7,6.6-17.3c2.1-1.8,4.3-3.4,6.6-5c3.3-2.3,6.4-0.9,7.5,3.5c2.5,10.1,5,21.1,7.6,33c2.3,11.1,13,12.6,16.1,0.2
					c3.4-14,6.9-28.7,10.4-43.6c1.4-5.8,4.6-9.9,8.3-10.1c3.7-0.2,7.4-0.2,11.1,0c3.7,0.2,6.9,4.4,8.3,10.1
					c3.5,14.8,6.9,29.5,10.3,43.4C190.6,133.1,201.3,131.5,203.6,120.4z"/>
			</g>
		</g>
	</g>
</g>
</svg>
